<?xml version="1.0" encoding="UTF-8"?>
<svg id="Layer_2" data-name="Layer 2" xmlns="http://www.w3.org/2000/svg" viewBox="0 0 427.42 256.04">
  <defs>
    <style>
      .cls-1 {
        fill: #fff;
        stroke-width: 0px;
      }
    </style>
  </defs>
  <g id="Layer_1-2" data-name="Layer 1">
    <g>
      <g>
        <polyline class="cls-1" points="288.15 127.4 288.15 185.76 293.05 185.76 297.95 185.76 297.95 127.4 297.95 69.83 293.05 69.83 288.15 69.83 288.15 127.4"/>
        <path class="cls-1" d="m391.9,128.95v57.26h9.19l.15-21.59.15-21.59,7.5,21.43,7.5,21.43h5.51c3.06,0,5.51,0,5.51-.15s-3.67-10.41-8.11-22.97c-4.44-12.55-8.27-23.27-8.57-23.88-.31-1.07.46-3.06,7.81-19.75,4.44-10.26,8.27-18.83,8.42-18.99.15-.31-1.07-.46-5.21-.46h-5.36l-7.5,18.07-7.5,18.07-.15-32.15-.15-33.86h-9.19v59.12"/>
        <path class="cls-1" d="m360.33,97.39c-3.98,1.22-8.57,5.36-9.03,10.41-.77,2.91-1.53,61.85-.61,66.29,2.91,13.78,23.12,16.69,29.09,4.13,1.68-3.52,1.84-5.51,1.84-17.91v-11.33h-9.19v11.02c0,10.56,0,11.02-.92,12.71-2.14,4.29-8.73,4.13-10.87-.31-.92-1.99-1.53-53.74-.61-59.25,1.07-6.43,7.66-8.42,11.48-3.37.77,1.07.77,1.68.92,12.4l.15,11.33h8.88v-11.79c0-14.55-.31-16.38-3.67-20.52-3.22-3.83-11.64-5.66-17.45-3.83"/>
        <path class="cls-1" d="m277.81,138.42c-.15-35.37,0-33.68-2.76-37.82-3.52-5.36-13.78-5.66-18.99-.61l-1.38,1.38v-31.54h-9.8l.15,57.57v58.5h5.51l.61-4c.61-2.91.77-2.91,2.14-.92,5.21,7.5,19.14,6.12,22.81-2.14,1.84-3.98,1.84-6.12,1.68-40.42Zm-10.26,33.84c-2.3,5.05-10.72,3.37-12.25-2.3-.31-.92-.31-10.26-.31-29.7,0,0,0-19.44.15-28.32,0-.61.61-1.99.61-1.99,2.14-4.44,6.74-6.12,9.95-3.22,1.99,1.99,1.99,1.84,2.45,34.3,0,27.1,0,29.86-.61,31.23Z"/>
        <path class="cls-1" d="m337.07,102.14c-2.91-4.44-12.25-7.04-18.53-4.9-3.98.92-9.95,6.43-10.1,12.4-.15,11.02,0,19.44-.15,30.47-.15,34.91-.15,34.76,1.99,38.74,5.21,9.8,23.27,9.34,28.02-.61,1.68-3.67,1.68-4.29,1.68-38.12-.15-36.13,0-33.84-2.91-37.97Zm-9.34,72.88c-3.22,1.68-7.66.46-9.03-2.3-.92-1.84-1.38-54.81-.61-60.17.77-5.05,5.97-7.5,9.95-4.75,2.76,1.99,2.6.46,2.6,33.68s.15,32-2.91,33.53Z"/>
        <path class="cls-1" d="m141.52,85.09v13.47h-3.98v10.41h3.98v30.62c0,37.05.15,37.82,4.75,42.41,2.91,3.06,10.26,4.9,14.85,3.67l.92-.31v-10.11l-.92.31c-1.38.31-3.98-.46-5.21-1.53-2.3-1.99-2.14-.77-2.3-34.45l-.15-30.93h8.27v-10.41h-8.27v-28.43h-11.94v15.26"/>
        <path class="cls-1" d="m199.58,183.74c-.15-.61-.46-17.91-.61-38.58-.31-40.11-.15-38.12-2.14-41.8-2.6-5.66-12.71-8.42-19.75-5.82-7.2,2.76-8.57,6.28-8.88,22.97l-.15,11.94h10.41v-9.03c0-13.32.46-14.55,4.59-14.55s4.59,1.38,4.75,14.39v9.95l-3.67,1.68c-14.24,6.58-17.15,11.79-17.15,30.77,0,10.41.31,12.55,1.99,15.62,3.37,5.82,13.47,6.43,18.07,1.22l1.53-1.68.15,1.84.15,3.29h11.02l-.31-2.22Zm-12.55-11.64c-1.84,2.91-6.12,2.91-7.66,0-1.38-2.6-.92-19.6.61-22.81,1.07-2.3,5.66-5.97,7.5-6.12.31,0,.31,6.28.31,13.93,0,13.01,0,13.93-.77,15Z"/>
        <path class="cls-1" d="m228.29,141.4s-.01-.01-.02-.02c-.09-.1-.18-.2-.27-.3h0c-.79-.88-1.64-1.8-2.59-2.81-9.37-9.99-9.53-9.99-9.53-19.51,0-8.6.61-9.99,4.46-9.99,3.53,0,4.46,2.3,4.46,12.29v6.76h11.06l-.15-9.99c-.31-12.91-1.08-16.13-5.07-18.75-3.38-2.46-12.14-3.07-17.36-1.54-3.23,1.08-6.15,3.84-7.53,7.07-.92,2.3-.92,2.61-.92,13.21,0,13.95.15,14.99,7.57,23.25,0,0,.19.22.29.32h0c.79.88,1.64,1.8,2.59,2.81,9.37,9.99,9.53,9.99,9.53,19.51,0,8.6-.61,9.99-4.46,9.99-3.53,0-4.46-2.3-4.46-12.29v-5.85h-11.05l.14,9.07c.31,12.91,1.08,16.13,5.07,18.75,3.38,2.46,12.14,3.07,17.36,1.54,3.23-1.08,6.15-3.84,7.53-7.07.92-2.3.92-2.61.92-13.21,0-13.95-.15-14.99-7.57-23.25h0Z"/>
      </g>
      <g>
        <polygon class="cls-1" points="112.14 185.25 58.79 153.57 58.79 256.04 112.14 226.52 112.14 185.25"/>
        <polygon class="cls-1" points="16.02 20.79 16.02 147.59 53.29 124.05 53.29 0 16.02 20.79"/>
        <polygon class="cls-1" points="0 164.22 0 219.69 53.29 256.04 53.29 130.56 0 164.22"/>
        <polygon class="cls-1" points="96.12 89.54 58.79 112.36 58.79 147.17 96.12 169.33 96.12 89.54"/>
        <polygon class="cls-1" points="80.1 44.69 58.79 32.04 58.79 105.9 80.1 92.88 80.1 44.69"/>
      </g>
    </g>
  </g>
</svg>